<?xml version="1.0" standalone="no"?>
<!DOCTYPE svg PUBLIC "-//W3C//DTD SVG 20010904//EN"
 "http://www.w3.org/TR/2001/REC-SVG-20010904/DTD/svg10.dtd">
<svg version="1.0" xmlns="http://www.w3.org/2000/svg"
 width="700.000000pt" height="700.000000pt" viewBox="0 0 700.000000 700.000000"
 preserveAspectRatio="xMidYMid meet">
<metadata>
Created by potrace 1.14, written by Peter Selinger 2001-2017
</metadata>
<g transform="translate(0.000000,700.000000) scale(0.100000,-0.100000)"
fill="#000000" stroke="none">
<path d="M1295 5943 c-143 -32 -215 -62 -303 -126 -104 -75 -183 -174 -236
-294 -55 -127 -56 -137 -53 -1008 3 -784 3 -801 24 -860 46 -133 94 -213 177
-297 105 -107 259 -183 407 -202 19 -3 204 -5 412 -5 l377 -1 0 -525 0 -525
524 524 524 524 419 5 c385 3 423 5 478 24 261 87 433 274 490 533 12 54 14
198 12 870 -3 780 -3 807 -23 865 -84 245 -252 410 -492 483 -53 16 -160 17
-1387 18 -731 1 -1339 0 -1350 -3z"/>
<path d="M5249 4153 c0 -219 -2 -405 -3 -413 -2 -8 -6 -44 -10 -80 -22 -213
-126 -462 -271 -654 -206 -272 -491 -452 -833 -527 -83 -18 -141 -22 -396 -26
l-300 -5 -307 -308 -307 -308 57 -25 c117 -52 168 -57 586 -57 l385 0 525
-525 525 -525 0 525 0 525 378 1 c207 0 396 3 420 5 87 10 209 58 291 114 147
100 241 235 287 409 23 86 23 88 23 866 0 438 -4 798 -9 820 -5 22 -11 52 -13
66 -15 82 -105 237 -183 314 -56 56 -156 122 -231 153 -98 41 -181 52 -404 52
l-209 0 -1 -397z"/>
</g>
</svg>
